<?xml version="1.0" encoding="utf-8"?>
<!-- Generator: Adobe Illustrator 21.0.0, SVG Export Plug-In . SVG Version: 6.00 Build 0)  -->
<svg version="1.1" id="Livello_1" xmlns="http://www.w3.org/2000/svg" xmlns:xlink="http://www.w3.org/1999/xlink" x="0px" y="0px"
	 viewBox="0 0 276 276" style="enable-background:new 0 0 276 276;" xml:space="preserve">
<style type="text/css">
	.st0{fill:#FFFFFF;}
	.st1{fill:#6B77B6;}
</style>
<g>
	<circle class="st0" cx="138" cy="138" r="130"/>
	<g>
		<g>
			<g>
				<path class="st1" d="M167.4,201.5c-1.7,0-3.1-1.4-3.1-3.1v-97.1c0-0.3-0.1-0.7-0.4-0.9l-18.3-18.3c-0.2-0.2-0.6-0.4-0.9-0.4
					H77.3c-1.7,0-3.1-1.4-3.1-3.1c0-1.7,1.4-3.1,3.1-3.1h67.6c2,0,3.8,0.8,5.2,2.2l18.3,18.3c1.4,1.4,2.2,3.3,2.2,5.2v97.1
					C170.5,200.1,169.1,201.5,167.4,201.5z"/>
			</g>
			<g>
				<path class="st1" d="M177.9,191c-1.7,0-3.1-1.4-3.1-3.1V90.8c0-0.3-0.1-0.7-0.4-0.9l-18.3-18.3c-0.2-0.2-0.6-0.4-0.9-0.4H87.7
					c-1.7,0-3.1-1.4-3.1-3.1c0-1.7,1.4-3.1,3.1-3.1h67.6c2,0,3.8,0.8,5.2,2.2l18.3,18.3c1.4,1.4,2.2,3.3,2.2,5.2V188
					C180.9,189.7,179.6,191,177.9,191z"/>
			</g>
			<g>
				<path class="st1" d="M158.4,111.8l-17.9,0c-3.3,0-6.1-2.7-6.1-6.1V87.9c0-1-0.3-1.2,1.7-1.2c1,0,1.7,0.2,1.7,1.2v17.8
					c0,1.4,1.2,2.6,2.6,2.6h17.8c1,0,1.2,0.8,1.2,1.7C159.4,111.9,159.3,111.8,158.4,111.8z"/>
			</g>
			<g>
				<g>
					<path class="st1" d="M142.3,105.7h15.3l-17.3-17.3v15.3C140.3,104.8,141.2,105.7,142.3,105.7z"/>
				</g>
				<g>
					<path class="st1" d="M142.3,110.6c-3.8,0-7-3.1-7-7V86.7H69.2c-2.4,0-4.3,1.9-4.3,4.3v115.4c0,2.4,1.9,4.3,4.3,4.3h85.8
						c2.4,0,4.3-1.9,4.3-4.3v-95.8H142.3z M76.2,102.7h51.2c1,0,1.8,0.8,1.8,1.8c0,1-0.8,1.8-1.8,1.8H76.2c-1,0-1.8-0.8-1.8-1.8
						C74.3,103.5,75.2,102.7,76.2,102.7z M148.1,189.1h-72c-1,0-1.8-0.8-1.8-1.8c0-1,0.8-1.8,1.8-1.8h72c1,0,1.8,0.8,1.8,1.8
						C150,188.3,149.1,189.1,148.1,189.1z M148.1,175.3h-72c-1,0-1.8-0.8-1.8-1.8c0-1,0.8-1.8,1.8-1.8h72c1,0,1.8,0.8,1.8,1.8
						C150,174.5,149.1,175.3,148.1,175.3z M148.1,161.5h-72c-1,0-1.8-0.8-1.8-1.8c0-1,0.8-1.8,1.8-1.8h72c1,0,1.8,0.8,1.8,1.8
						C150,160.7,149.1,161.5,148.1,161.5z M148.1,147.7h-72c-1,0-1.8-0.8-1.8-1.8c0-1,0.8-1.8,1.8-1.8h72c1,0,1.8,0.8,1.8,1.8
						C150,146.9,149.1,147.7,148.1,147.7z M148.1,133.9h-72c-1,0-1.8-0.8-1.8-1.8c0-1,0.8-1.8,1.8-1.8h72c1,0,1.8,0.8,1.8,1.8
						C150,133.1,149.1,133.9,148.1,133.9z M148.1,120.1h-72c-1,0-1.8-0.8-1.8-1.8c0-1,0.8-1.8,1.8-1.8h72c1,0,1.8,0.8,1.8,1.8
						C150,119.3,149.1,120.1,148.1,120.1z"/>
				</g>
			</g>
		</g>
		<g>
			<path class="st1" d="M194.4,205.5l12.4,0l4.4-57.2H190L194.4,205.5z M194.4,205.5"/>
			<path class="st1" d="M190.1,145.6l20.8,0l-4.2-23.1l-12.4,0L190.1,145.6z M190.1,145.6"/>
			<g>
				<path class="st1" d="M194.6,107.8l1.7,13.1l8.6-0.1l1.6-13.2c0,0-5.9-5.2-5.9-12.5C200.5,95.2,200,103.5,194.6,107.8
					L194.6,107.8z M198.8,108c0.7-0.7,1.9-0.7,2.6,0c0.7,0.7,0.7,1.9,0,2.6c-0.7,0.7-1.9,0.7-2.6,0
					C198.1,109.9,198.1,108.7,198.8,108L198.8,108z M198.8,108"/>
				<path class="st1" d="M206.2,207.8h-11.4C200.7,213.7,206.2,207.8,206.2,207.8L206.2,207.8z M206.2,207.8"/>
			</g>
		</g>
	</g>
</g>
</svg>
