<?xml version="1.0" encoding="utf-8"?>
<!-- Generator: Adobe Illustrator 21.0.0, SVG Export Plug-In . SVG Version: 6.00 Build 0)  -->
<svg version="1.1" id="Livello_1" xmlns="http://www.w3.org/2000/svg" xmlns:xlink="http://www.w3.org/1999/xlink" x="0px" y="0px"
	 viewBox="0 0 276 276" style="enable-background:new 0 0 276 276;" xml:space="preserve">
<style type="text/css">
	.st0{fill:#FFFFFF;}
	.st1{fill:#6B77B6;}
</style>
<g>
	<circle class="st0" cx="138" cy="138" r="130"/>
	<g>
		<path class="st1" d="M120.2,97.6V111H94.3v67.5h-16V111H52.4V97.6H120.2z M207.5,178.4l-3-47.6c-0.3-6.2-0.3-14-0.6-22.6h-0.9
			c-2.1,7.1-4.5,16.6-6.8,24.1l-14.6,44.9h-16.6l-14.6-46.1c-1.5-6.2-3.8-15.7-5.6-22.9H144c0,7.4-0.3,15.2-0.6,22.6l-3,47.6h-15.5
			l6-80.8h24.1l14,39.5c1.8,6.2,3.3,12.2,5.3,20.5h0.3c2.1-7.4,3.9-14.3,5.6-20.2l14-39.8h23.2l6.2,80.8H207.5z"/>
	</g>
</g>
</svg>
