<?xml version="1.0" encoding="utf-8"?>
<!-- Generator: Adobe Illustrator 21.0.0, SVG Export Plug-In . SVG Version: 6.00 Build 0)  -->
<svg version="1.1" id="Livello_1" xmlns="http://www.w3.org/2000/svg" xmlns:xlink="http://www.w3.org/1999/xlink" x="0px" y="0px"
	 viewBox="0 0 276 276" style="enable-background:new 0 0 276 276;" xml:space="preserve">
<style type="text/css">
	.st0{fill:#FFFFFF;}
	.st1{fill:#6B77B6;}
</style>
<g>
	<circle class="st0" cx="138" cy="138" r="130"/>
	<g>
		<path class="st1" d="M183.4,184c0.6,0.6,1.4,0.9,2.1,0.9c0.8,0,1.6-0.3,2.2-0.9l34.3-34.6c1.2-1.2,1.2-3.1,0-4.3
			c-1.2-1.2-3.1-1.2-4.3,0l-34.3,34.6C182.2,180.9,182.2,182.8,183.4,184L183.4,184z M183.4,184"/>
		<g>
			<path class="st1" d="M189,162.5c0.3,0.1,0.6,0.2,1,0.2c1.3,0,2.5-0.8,2.9-2.1l9.8-29.7c0.5-1.6-0.3-3.3-1.9-3.8
				c-1.6-0.5-3.3,0.3-3.8,1.9l-9.8,29.7C186.5,160.2,187.4,161.9,189,162.5L189,162.5z M189,162.5"/>
			<path class="st1" d="M231.9,179.8c-0.2-1.7-1.7-2.9-3.4-2.7l-29.1,3.4c-1.7,0.2-2.9,1.7-2.7,3.4c0.2,1.5,1.5,2.7,3,2.7
				c0.1,0,0.2,0,0.4,0l29.1-3.4C230.9,182.9,232.1,181.4,231.9,179.8L231.9,179.8z M231.9,179.8"/>
			<path class="st1" d="M225.7,192.1h-56.1c3.2-1.9,5.1-5.7,4.3-9.5l-2.2-11.6l10.2-1.9c0.5-0.1,1-0.4,1.3-0.8
				c0.3-0.4,0.4-1,0.3-1.5l-1.7-8.7c-0.2-1.1-1.3-1.8-2.4-1.6l-1.9,0.4l-4.5-34c0,0,0-0.1,0-0.1c-0.8-4.3-4.6-7.4-8.9-7.4
				c-0.6,0-1.2,0.1-1.7,0.2l-4.7,0.9l-16.3-49.4c-0.3-1-1.3-1.5-2.3-1.4L54.8,81.5c-1,0.2-1.7,1.1-1.6,2.1l3.1,52l-4.7,0.9
				c-4.9,0.9-8.2,5.7-7.3,10.7c0,0,0,0.1,0,0.1l8.4,33.3l-1.9,0.4c-0.5,0.1-1,0.4-1.3,0.8c-0.3,0.4-0.4,1-0.3,1.5l1.7,8.7
				c0.2,1,1,1.6,2,1.6c0.1,0,0.3,0,0.4,0l10.2-1.9l2.2,11.6c0.8,4.3,4.6,7.4,9,7.4c0.6,0,1.2-0.1,1.7-0.2l6.1-1.2
				c2.4-0.5,4.5-1.8,5.8-3.8c1.4-2,1.9-4.4,1.4-6.8L87.4,187l60.3-11.5l2.2,11.6c0.4,2,1.4,3.7,2.8,5h-28.8c-4.5,0-8.1,3.6-8.1,8.1
				v8.4c0,1.1,0.9,2,2,2h107.9c1.1,0,2-0.9,2-2v-14.5C227.7,193,226.8,192.1,225.7,192.1L225.7,192.1z M74.6,170.1
				c-0.7,0.1-1.4,0.2-2,0.2c-5.2,0-9.7-3.7-10.6-8.8c-1.1-5.9,2.7-11.5,8.6-12.7c0.7-0.1,1.4-0.2,2-0.2c5.2,0,9.7,3.7,10.6,8.8
				C84.3,163.3,80.4,169,74.6,170.1L74.6,170.1z M64.8,134l-2.5-43.3c-0.1-1,0.6-1.9,1.6-2.1l69.4-13.2c1-0.2,2,0.4,2.3,1.4
				l13.6,41.2L64.8,134z M160.3,150.6c-1.6,2.4-4.1,4-6.9,4.5c-0.7,0.1-1.4,0.2-2,0.2c-5.2,0-9.7-3.7-10.6-8.8
				c-0.5-2.8,0.1-5.7,1.7-8.1c1.6-2.4,4.1-4,6.9-4.5c0.7-0.1,1.4-0.2,2-0.2c5.2,0,9.7,3.7,10.6,8.8
				C162.5,145.3,161.9,148.2,160.3,150.6L160.3,150.6z M160.3,150.6"/>
		</g>
	</g>
</g>
</svg>
