<?xml version="1.0" encoding="utf-8"?>
<!-- Generator: Adobe Illustrator 21.0.0, SVG Export Plug-In . SVG Version: 6.00 Build 0)  -->
<svg version="1.1" id="Livello_1" xmlns="http://www.w3.org/2000/svg" xmlns:xlink="http://www.w3.org/1999/xlink" x="0px" y="0px"
	 viewBox="0 0 276 276" style="enable-background:new 0 0 276 276;" xml:space="preserve">
<style type="text/css">
	.st0{fill:#FFFFFF;}
	.st1{fill:#6B77B6;}
</style>
<g>
	<circle class="st0" cx="138" cy="138" r="130"/>
	<g>
		<path id="XMLID_466_" class="st1" d="M114.8,65v146h18.8v-29.2h15.8V211h20.2V65H114.8z M132.3,158.6H123v-22.8h9.3V158.6z
			 M132.3,129.5H123v-22.8h9.3V129.5z M132.3,101.3H123V78.5h9.3V101.3z M146.8,158.6h-9.3v-22.8h9.3V158.6z M146.8,129.5h-9.3
			v-22.8h9.3V129.5z M146.8,101.3h-9.3V78.5h9.3V101.3z M161.4,158.6h-9.3v-22.8h9.3V158.6z M161.4,129.5h-9.3v-22.8h9.3V129.5z
			 M161.4,101.3h-9.3V78.5h9.3V101.3z"/>
		<path id="XMLID_460_" class="st1" d="M100.4,189.3v-14.3h11.8v-9.9h-11.8v-14.3h11.8v-11.2h-11.8v-14.3h11.8v-10.5h-11.8v-14.3
			h11.8v-9.3H65.3v113.8h46.8v-15.8H100.4z M88.7,189.3H74.5v-14.3h14.3V189.3z M88.7,165.1H74.5v-14.3h14.3V165.1z M88.7,139.7
			H74.5v-14.3h14.3V139.7z M88.7,114.9H74.5v-14.3h14.3V114.9z"/>
		<path id="XMLID_457_" class="st1" d="M210.7,198v-12.7v-6v-2.6v-8.1v-8.7v-4.7v-8.7v-4.2v-8.7v-4.9V120v-5v-8.7h-9.3h-29.1v8.7
			h29.1v5h-29.1v8.7h29.1v4.9h-29.1v8.7h29.1v4.2h-29.1v8.7h29.1v4.7h-29.1v8.7h29.1v8.1h-29.1v2.6v6V198v7.3h29.1h9.3 M194.5,197.6
			h-17.4v-12.7h17.4V197.6z"/>
	</g>
</g>
</svg>
