<?xml version="1.0" encoding="utf-8"?>
<!-- Generator: Adobe Illustrator 21.0.0, SVG Export Plug-In . SVG Version: 6.00 Build 0)  -->
<svg version="1.1" id="Livello_1" xmlns="http://www.w3.org/2000/svg" xmlns:xlink="http://www.w3.org/1999/xlink" x="0px" y="0px"
	 viewBox="0 0 276 276" style="enable-background:new 0 0 276 276;" xml:space="preserve">
<style type="text/css">
	.st0{fill:#FFFFFF;}
	.st1{fill:#6B77B6;}
</style>
<g>
	<circle class="st0" cx="138" cy="138" r="130"/>
	<g>
		<g>
			<g>
				<g>
					<path class="st1" d="M165,146.5c-0.4-0.6-6.8,4.4-7.4,4.9c-2.4,2.1-4.6,4.6-6.5,7.1c-2,2.7-3.7,5.5-5.1,8.5
						c-0.6,1.1-0.7,1.7-1.7,2.4c-0.5,0.4-1,0.8-1.4,1.2c1.1-5.1,2.4-10.1,4.5-14.9c1-2.3,2-4.5,3.3-6.7c0.2-0.4,3.4-5.4,3.5-5.3
						c-0.6-0.5-5.9,7.1-6.7,8.4c-3.3,5.4-5.8,11.2-7.6,17.3c-0.2-14.5-1-28.9-1.7-43.3c-0.1-1.4-0.1-2.8-0.2-4.3
						c-0.6,11.9-1.1,23.9-1.6,35.8c-0.1,3.9-0.3,7.9-0.3,11.8c-1.8-6.1-4.3-11.9-7.6-17.3c-0.8-1.3-6.1-8.9-6.7-8.4
						c0.1-0.1,3.2,4.8,3.5,5.2c1.3,2.2,2.4,4.4,3.3,6.8c2,4.8,3.4,9.8,4.5,14.9c-0.4-0.3-0.8-0.7-1.3-1c-1-0.8-1.2-1.1-1.8-2.3
						c-1.5-3-3.2-6-5.3-8.7c-1.9-2.5-4-4.9-6.4-7c-0.6-0.5-7.2-5.7-7.6-5.1c0-0.1,3.6,2.9,3.9,3.2c1.6,1.5,3,3.1,4.3,4.9
						c2.3,3.1,4.2,6.6,5.7,10.2c-2.6-1.6-5.3-3-8.1-4.2c-0.8-0.3-5.2-2.1-5.3-1.8c0.1-0.1,5.3,2.8,6.1,3.3c3.1,2,6,4.2,8.7,6.7
						c2.3,2.1,4.5,4.4,6.5,6.8c0.4,0.5,1,1,1.3,1.5c0.2,0.4,0.2,1.1,0.3,1.6c0.2,1.5,0.3,2.9,0.4,4.4c0.2,4.3,0.3,8.6,0,12.9
						c-0.1,2.2-0.2,4.3-1.6,6.2c-2,2.9-5.8,4-9.1,4.8c7.4,0,14.9,0,22.3,0c1.9,0,3.8,0,5.8,0c-2.9-0.7-6.3-1.6-8.4-3.8
						c-1.7-1.8-2.1-4-2.3-6.3c-0.2-4.1-0.3-8.3-0.1-12.4c0.1-1.5,0.2-3,0.3-4.5c0.1-1.2,0-2.3,0.8-3.2c2.1-2.4,4.2-4.8,6.5-7
						c2.6-2.4,5.4-4.7,8.3-6.7c0.6-0.4,7.2-4.3,7.3-4.1c-0.1-0.3-4.5,1.4-5.3,1.8c-2.8,1.2-5.5,2.6-8.1,4.2c1.5-3.6,3.4-7,5.7-10.2
						c1.2-1.7,2.6-3.2,4.1-4.7C161.2,149.5,165,146.4,165,146.5z"/>
					<path class="st1" d="M151.9,206.9c-2.9-0.7-6.3-1.6-8.4-3.8c-1.7-1.8-2.1-4-2.3-6.3c-0.2-4.1-0.3-8.3-0.1-12.4
						c0.1-1.5,0.2-3,0.3-4.5c0.1-1.2,0-2.3,0.8-3.2c2.1-2.4,4.2-4.8,6.5-7c2.6-2.4,5.4-4.7,8.3-6.7c0.6-0.4,7-4.2,7.3-4.1
						c-0.2-0.3-4.5,1.4-5.3,1.8c-2.8,1.2-5.5,2.6-8.1,4.2c1.5-3.6,3.4-7,5.7-10.2c1.2-1.7,2.6-3.2,4.1-4.7c0.3-0.3,4.1-3.4,4.1-3.3
						c-0.4-0.6-6.8,4.4-7.4,4.9c-2.4,2.1-4.6,4.6-6.5,7.1c-2,2.7-3.7,5.5-5.1,8.5c-0.6,1.1-0.7,1.7-1.7,2.4c-0.5,0.4-1,0.8-1.4,1.2
						c1.1-5.1,2.4-10.1,4.5-14.9c1-2.3,2-4.5,3.3-6.7c0.2-0.4,3.4-5.4,3.5-5.3c-0.6-0.5-5.9,7.1-6.7,8.4c-3.3,5.4-5.8,11.2-7.6,17.3
						c-0.2-14.5-1-28.9-1.7-43.3c-0.1-1.4-0.1-2.8-0.2-4.3v85.1c2.8,0,5.5,0,8.3,0C148.1,206.9,150,206.9,151.9,206.9z"/>
				</g>
				<g>
					<g>
						<g>
							<path class="st1" d="M155.5,143.7c-0.7,3.3,0.8,6.4,0.8,6.4s2.7-2.2,3.4-5.5s-0.8-6.4-0.8-6.4S156.2,140.4,155.5,143.7z"/>
							<path class="st1" d="M158.9,138.2l-2.6,12c0,0-1.5-3.1-0.8-6.4C156.2,140.4,158.9,138.2,158.9,138.2z"/>
						</g>
						<g>
							<path class="st1" d="M163.7,138.7c-1.4,3.1-0.6,6.5-0.6,6.5s3.1-1.6,4.6-4.6c1.4-3.1,0.6-6.5,0.6-6.5
								S165.2,135.6,163.7,138.7z"/>
							<path class="st1" d="M168.3,134.1l-5.2,11.1c0,0-0.8-3.4,0.6-6.5C165.2,135.6,168.3,134.1,168.3,134.1z"/>
						</g>
						<g>
							<path class="st1" d="M174.3,130.4c-2.6,2.1-3.4,5.5-3.4,5.5s3.5,0,6.1-2.1c2.6-2.1,3.4-5.5,3.4-5.5S176.9,128.3,174.3,130.4z
								"/>
							<path class="st1" d="M180.4,128.3l-9.6,7.7c0,0,0.8-3.4,3.4-5.5C176.9,128.3,180.4,128.3,180.4,128.3z"/>
						</g>
						<g>
							<path class="st1" d="M159.6,120.4c-2.1,2.7-2,6.2-2,6.2s3.4-0.8,5.5-3.5c2.1-2.7,2-6.2,2-6.2S161.7,117.8,159.6,120.4z"/>
							<path class="st1" d="M165.1,116.9l-7.5,9.7c0,0,0-3.5,2-6.2C161.7,117.8,165.1,116.9,165.1,116.9z"/>
						</g>
						<g>
							<path class="st1" d="M148.5,115.7c-1.1,3.2,0,6.5,0,6.5s2.9-1.9,4.1-5.1c1.1-3.2,0-6.5,0-6.5S149.6,112.5,148.5,115.7z"/>
							<path class="st1" d="M152.6,110.7l-4.1,11.6c0,0-1.1-3.3,0-6.5C149.6,112.5,152.6,110.7,152.6,110.7z"/>
						</g>
						<g>
							<path class="st1" d="M168.3,116.4c-1.7,2.9-1.1,6.4-1.1,6.4s3.2-1.3,4.9-4.3c1.7-2.9,1.1-6.4,1.1-6.4S170,113.4,168.3,116.4z
								"/>
							<path class="st1" d="M173.2,112.1l-6,10.7c0,0-0.5-3.5,1.1-6.4C170,113.4,173.2,112.1,173.2,112.1z"/>
						</g>
						<g>
							<path class="st1" d="M154.8,102.9c-1.7,2.9-1.1,6.4-1.1,6.4s3.2-1.3,4.9-4.3c1.7-2.9,1.1-6.4,1.1-6.4S156.5,100,154.8,102.9z
								"/>
							<path class="st1" d="M159.7,98.6l-6,10.7c0,0-0.5-3.5,1.1-6.4C156.5,100,159.7,98.6,159.7,98.6z"/>
						</g>
						<g>
							<path class="st1" d="M166,106.6c-1.7,2.9-1.1,6.4-1.1,6.4s3.2-1.3,4.9-4.3c1.7-2.9,1.1-6.4,1.1-6.4S167.7,103.7,166,106.6z"
								/>
							<path class="st1" d="M170.9,102.4l-6,10.7c0,0-0.5-3.5,1.1-6.4C167.7,103.7,170.9,102.4,170.9,102.4z"/>
						</g>
						<g>
							<path class="st1" d="M171.9,94.7c-1.7,2.9-1.1,6.4-1.1,6.4s3.2-1.3,4.9-4.3c1.7-2.9,1.1-6.4,1.1-6.4S173.6,91.8,171.9,94.7z"
								/>
							<path class="st1" d="M176.8,90.4l-6,10.7c0,0-0.5-3.5,1.1-6.4C173.6,91.8,176.8,90.4,176.8,90.4z"/>
						</g>
						<g>
							<path class="st1" d="M180.1,118.3c-3.2,1-5.2,3.9-5.2,3.9s3.3,1.3,6.5,0.3c3.2-1,5.2-3.9,5.2-3.9S183.3,117.3,180.1,118.3z"
								/>
							<path class="st1" d="M186.6,118.6l-11.7,3.6c0,0,2-2.9,5.2-3.9C183.3,117.3,186.6,118.6,186.6,118.6z"/>
						</g>
						<g>
							<path class="st1" d="M183.1,131.6c-3.1,1.3-4.8,4.3-4.8,4.3s3.4,0.9,6.5-0.4c3.1-1.3,4.8-4.3,4.8-4.3
								S186.3,130.3,183.1,131.6z"/>
							<path class="st1" d="M189.6,131.2l-11.3,4.7c0,0,1.7-3,4.8-4.3C186.3,130.3,189.6,131.2,189.6,131.2z"/>
						</g>
						<g>
							<path class="st1" d="M181.2,141c-3.1,1.3-4.8,4.3-4.8,4.3s3.4,0.9,6.5-0.4c3.1-1.3,4.8-4.3,4.8-4.3S184.3,139.7,181.2,141z"
								/>
							<path class="st1" d="M187.7,140.7l-11.3,4.7c0,0,1.7-3,4.8-4.3S187.7,140.7,187.7,140.7z"/>
						</g>
						<g>
							<path class="st1" d="M182.7,148.3c-3.1,1.3-4.8,4.3-4.8,4.3s3.4,0.9,6.5-0.4s4.8-4.3,4.8-4.3S185.8,147,182.7,148.3z"/>
							<path class="st1" d="M189.2,148l-11.3,4.7c0,0,1.7-3,4.8-4.3C185.8,147,189.2,148,189.2,148z"/>
						</g>
						<g>
							<path class="st1" d="M177.5,111.7c-2.1,2.6-2.2,6.1-2.2,6.1s3.4-0.7,5.6-3.4c2.1-2.6,2.2-6.1,2.2-6.1S179.6,109,177.5,111.7z
								"/>
							<path class="st1" d="M183,108.3l-7.8,9.5c0,0,0.1-3.5,2.2-6.1C179.6,109,183,108.3,183,108.3z"/>
						</g>
						<g>
							<path class="st1" d="M160.6,90.2c-1.6,3-0.9,6.4-0.9,6.4s3.2-1.4,4.8-4.4c1.6-3,0.9-6.4,0.9-6.4S162.2,87.2,160.6,90.2z"/>
							<path class="st1" d="M165.3,85.8l-5.7,10.9c0,0-0.6-3.4,0.9-6.4C162.2,87.2,165.3,85.8,165.3,85.8z"/>
						</g>
						<g>
							<path class="st1" d="M160.5,80.3c-1.6,3-0.9,6.4-0.9,6.4s3.2-1.4,4.8-4.4c1.6-3,0.9-6.4,0.9-6.4S162.1,77.3,160.5,80.3z"/>
							<path class="st1" d="M165.3,75.8l-5.7,10.9c0,0-0.6-3.4,0.9-6.4C162.1,77.3,165.3,75.8,165.3,75.8z"/>
						</g>
						<g>
							<path class="st1" d="M150.7,78.1c-1.6,3-0.9,6.4-0.9,6.4s3.2-1.4,4.8-4.4c1.6-3,0.9-6.4,0.9-6.4S152.2,75.1,150.7,78.1z"/>
							<path class="st1" d="M155.4,73.7l-5.7,10.9c0,0-0.6-3.4,0.9-6.4C152.2,75.1,155.4,73.7,155.4,73.7z"/>
						</g>
						<g>
							<path class="st1" d="M175.6,103.6c-1.9,2.8-1.7,6.3-1.7,6.3s3.3-1,5.2-3.8c1.9-2.8,1.7-6.3,1.7-6.3S177.5,100.8,175.6,103.6z
								"/>
							<path class="st1" d="M180.8,99.8l-6.9,10.1c0,0-0.2-3.5,1.7-6.3C177.5,100.8,180.8,99.8,180.8,99.8z"/>
						</g>
						<g>
							<path class="st1" d="M162.4,98.9c-1.3,3.1-0.4,6.5-0.4,6.5s3.1-1.7,4.4-4.8c1.3-3.1,0.4-6.5,0.4-6.5S163.7,95.8,162.4,98.9z"
								/>
							<path class="st1" d="M166.8,94.2l-4.9,11.2c0,0-0.9-3.4,0.4-6.5C163.7,95.8,166.8,94.2,166.8,94.2z"/>
						</g>
						<g>
							<path class="st1" d="M143.6,95.8c-1.3,3.1-0.4,6.5-0.4,6.5s3.1-1.7,4.4-4.8c1.3-3.1,0.4-6.5,0.4-6.5S144.9,92.7,143.6,95.8z"
								/>
							<path class="st1" d="M148,91.1l-4.9,11.2c0,0-0.9-3.4,0.4-6.5C144.9,92.7,148,91.1,148,91.1z"/>
						</g>
						<g>
							<path class="st1" d="M151.6,95.8c-1.3,3.1-0.4,6.5-0.4,6.5s3.1-1.7,4.4-4.8c1.3-3.1,0.4-6.5,0.4-6.5S152.9,92.7,151.6,95.8z"
								/>
							<path class="st1" d="M156,91l-4.9,11.2c0,0-0.9-3.4,0.4-6.5C152.9,92.7,156,91,156,91z"/>
						</g>
						<g>
							<path class="st1" d="M156.4,112.8c-1.7,2.9-1.1,6.4-1.1,6.4s3.2-1.3,4.9-4.3c1.7-2.9,1.1-6.4,1.1-6.4S158,109.9,156.4,112.8z
								"/>
							<path class="st1" d="M161.3,108.6l-6,10.7c0,0-0.5-3.5,1.1-6.4C158,109.9,161.3,108.6,161.3,108.6z"/>
						</g>
						<g>
							<path class="st1" d="M141,135c-1.4,3.1-0.6,6.5-0.6,6.5s3.1-1.6,4.6-4.6c1.4-3.1,0.6-6.5,0.6-6.5S142.5,132,141,135z"/>
							<path class="st1" d="M145.6,130.4l-5.2,11.1c0,0-0.8-3.4,0.6-6.5C142.5,132,145.6,130.4,145.6,130.4z"/>
						</g>
						<g>
							<path class="st1" d="M140.9,122.5c-1.2,3.2-0.1,6.5-0.1,6.5s3-1.8,4.2-5c1.2-3.2,0.1-6.5,0.1-6.5S142.1,119.3,140.9,122.5z"
								/>
							<path class="st1" d="M145.1,117.5l-4.3,11.5c0,0-1.1-3.3,0.1-6.5C142.1,119.3,145.1,117.5,145.1,117.5z"/>
						</g>
						<g>
							<path class="st1" d="M149.3,124.6c-1.4,3.1-0.6,6.5-0.6,6.5s3.1-1.6,4.6-4.6c1.4-3.1,0.6-6.5,0.6-6.5
								S150.8,121.6,149.3,124.6z"/>
							<path class="st1" d="M153.9,120l-5.2,11.1c0,0-0.8-3.4,0.6-6.5C150.8,121.6,153.9,120,153.9,120z"/>
						</g>
						<g>
							<path class="st1" d="M141.8,147.9c-1.2,3.2-0.1,6.5-0.1,6.5s3-1.8,4.1-5c1.2-3.2,0.1-6.5,0.1-6.5S143,144.7,141.8,147.9z"/>
							<path class="st1" d="M145.9,142.9l-4.2,11.5c0,0-1.1-3.3,0.1-6.5C143,144.7,145.9,142.9,145.9,142.9z"/>
						</g>
						<g>
							<path class="st1" d="M172.1,139.7c-2.9,1.8-4,5.1-4,5.1s3.5,0.4,6.3-1.4c2.9-1.8,4-5.1,4-5.1S174.9,137.9,172.1,139.7z"/>
							<path class="st1" d="M178.4,138.3l-10.4,6.5c0,0,1.2-3.3,4-5.1C174.9,137.9,178.4,138.3,178.4,138.3z"/>
						</g>
						<g>
							<path class="st1" d="M155.4,132.2c-1.9,2.8-1.6,6.3-1.6,6.3s3.3-1.1,5.2-3.9c1.9-2.8,1.6-6.3,1.6-6.3
								S157.2,129.4,155.4,132.2z"/>
							<path class="st1" d="M160.6,128.3l-6.8,10.2c0,0-0.3-3.5,1.6-6.3C157.2,129.4,160.6,128.3,160.6,128.3z"/>
						</g>
						<g>
							<path class="st1" d="M147.3,138.9c-0.8,3.3,0.7,6.5,0.7,6.5s2.7-2.2,3.5-5.5c0.8-3.3-0.7-6.5-0.7-6.5
								S148.1,135.6,147.3,138.9z"/>
							<path class="st1" d="M150.8,133.4l-2.8,11.9c0,0-1.5-3.2-0.7-6.5C148.1,135.6,150.8,133.4,150.8,133.4z"/>
						</g>
						<g>
							<path class="st1" d="M162.4,152.3c-3.3,0.8-5.4,3.6-5.4,3.6s3.2,1.4,6.5,0.6c3.3-0.8,5.4-3.6,5.4-3.6
								S165.6,151.5,162.4,152.3z"/>
							<path class="st1" d="M168.8,152.9l-11.9,3c0,0,2.1-2.8,5.4-3.6C165.6,151.5,168.8,152.9,168.8,152.9z"/>
						</g>
						<g>
							<path class="st1" d="M170.6,147.1c-3.4-0.1-6.2,1.9-6.2,1.9s2.6,2.3,6,2.4c3.4,0.1,6.2-1.9,6.2-1.9S174,147.2,170.6,147.1z"
								/>
							<path class="st1" d="M176.6,149.5l-12.2-0.5c0,0,2.8-2,6.2-1.9C174,147.2,176.6,149.5,176.6,149.5z"/>
						</g>
						<g>
							<path class="st1" d="M160,164.8c-3.4-0.2-6.2,1.9-6.2,1.9s2.6,2.3,6,2.5c3.4,0.2,6.2-1.9,6.2-1.9S163.4,164.9,160,164.8z"/>
							<path class="st1" d="M166,167.2l-12.2-0.6c0,0,2.8-2,6.2-1.9C163.4,164.9,166,167.2,166,167.2z"/>
						</g>
						<g>
							<path class="st1" d="M173.8,162.2c-3.4-0.2-6.2,1.9-6.2,1.9s2.6,2.3,6,2.5c3.4,0.2,6.2-1.9,6.2-1.9S177.2,162.3,173.8,162.2z
								"/>
							<path class="st1" d="M179.8,164.6l-12.2-0.6c0,0,2.8-2,6.2-1.9C177.2,162.3,179.8,164.6,179.8,164.6z"/>
						</g>
						<g>
							<path class="st1" d="M192.2,150c-3.2,1-5.2,3.9-5.2,3.9s3.3,1.2,6.5,0.2c3.2-1,5.2-3.9,5.2-3.9S195.5,149,192.2,150z"/>
							<path class="st1" d="M198.7,150.2l-11.7,3.6c0,0,2-2.9,5.2-3.9C195.5,149,198.7,150.2,198.7,150.2z"/>
						</g>
						<g>
							<path class="st1" d="M193.5,134c-3.2,1-5.2,3.9-5.2,3.9s3.3,1.2,6.5,0.2s5.2-3.9,5.2-3.9S196.7,133,193.5,134z"/>
							<path class="st1" d="M200,134.3l-11.7,3.6c0,0,2-2.9,5.2-3.9C196.7,133,200,134.3,200,134.3z"/>
						</g>
						<g>
							<path class="st1" d="M184.5,95.2c-2.3,2.5-2.6,5.9-2.6,5.9s3.5-0.5,5.8-3c2.3-2.5,2.6-5.9,2.6-5.9S186.8,92.7,184.5,95.2z"/>
							<path class="st1" d="M190.3,92.2l-8.4,8.9c0,0,0.3-3.5,2.6-5.9C186.8,92.7,190.3,92.2,190.3,92.2z"/>
						</g>
						<g>
							<path class="st1" d="M196.4,117.3c-3,1.5-4.5,4.7-4.5,4.7s3.4,0.7,6.4-0.8c3-1.5,4.5-4.7,4.5-4.7S199.4,115.8,196.4,117.3z"
								/>
							<path class="st1" d="M202.8,116.4l-10.9,5.5c0,0,1.5-3.2,4.5-4.7S202.8,116.4,202.8,116.4z"/>
						</g>
						<g>
							<path class="st1" d="M169.7,86.6c-1.9,2.8-1.6,6.3-1.6,6.3s3.3-1.1,5.2-3.9c1.9-2.8,1.6-6.3,1.6-6.3S171.6,83.7,169.7,86.6z"
								/>
							<path class="st1" d="M174.9,82.6l-6.7,10.2c0,0-0.3-3.5,1.6-6.3C171.6,83.7,174.9,82.6,174.9,82.6z"/>
						</g>
						<g>
							<path class="st1" d="M151.5,86.9c-1.4,3.1-0.5,6.5-0.5,6.5s3.1-1.6,4.5-4.7s0.5-6.5,0.5-6.5S152.8,83.8,151.5,86.9z"/>
							<path class="st1" d="M155.9,82.2l-5,11.2c0,0-0.8-3.4,0.5-6.5C152.8,83.8,155.9,82.2,155.9,82.2z"/>
						</g>
						<g>
							<path class="st1" d="M142.2,85.9c-1.4,3.1-0.5,6.5-0.5,6.5s3.1-1.6,4.5-4.7c1.4-3.1,0.5-6.5,0.5-6.5S143.6,82.9,142.2,85.9z"
								/>
							<path class="st1" d="M146.7,81.3l-5,11.2c0,0-0.8-3.4,0.5-6.5C143.6,82.9,146.7,81.3,146.7,81.3z"/>
						</g>
						<g>
							<path class="st1" d="M180.4,89c-1.4,3.1-0.5,6.5-0.5,6.5s3.1-1.6,4.5-4.7c1.4-3.1,0.5-6.5,0.5-6.5S181.8,85.9,180.4,89z"/>
							<path class="st1" d="M184.9,84.3l-5,11.2c0,0-0.8-3.4,0.5-6.5C181.8,85.9,184.9,84.3,184.9,84.3z"/>
						</g>
						<g>
							<path class="st1" d="M190.6,113.8c-2.8,2-3.7,5.3-3.7,5.3s3.5,0.2,6.2-1.8c2.8-2,3.7-5.3,3.7-5.3S193.4,111.9,190.6,113.8z"
								/>
							<path class="st1" d="M196.9,112l-10,7.1c0,0,1-3.4,3.7-5.3C193.4,111.9,196.9,112,196.9,112z"/>
						</g>
						<g>
							<path class="st1" d="M186.6,105.6c-1.9,2.8-1.6,6.3-1.6,6.3s3.3-1.1,5.2-3.9c1.9-2.8,1.6-6.3,1.6-6.3
								S188.4,102.8,186.6,105.6z"/>
							<path class="st1" d="M191.7,101.7l-6.7,10.2c0,0-0.3-3.5,1.6-6.3C188.4,102.8,191.7,101.7,191.7,101.7z"/>
						</g>
						<g>
							<path class="st1" d="M194.6,141.8c-3.2,1-5.2,3.9-5.2,3.9s3.3,1.2,6.5,0.2c3.2-1,5.2-3.9,5.2-3.9S197.8,140.8,194.6,141.8z"
								/>
							<path class="st1" d="M201.1,142.1l-11.7,3.6c0,0,2-2.9,5.2-3.9C197.8,140.8,201.1,142.1,201.1,142.1z"/>
						</g>
						<g>
							<path class="st1" d="M170.9,155.1c-3.2,1-5.2,3.8-5.2,3.8s3.3,1.3,6.5,0.3c3.2-1,5.2-3.8,5.2-3.8S174.1,154.1,170.9,155.1z"
								/>
							<path class="st1" d="M177.4,155.4l-11.7,3.6c0,0,2-2.9,5.2-3.8C174.1,154.1,177.4,155.4,177.4,155.4z"/>
						</g>
						<g>
							<path class="st1" d="M136.1,113.9c0,3.4,2.1,6.1,2.1,6.1s2-2.8,2-6.1c0-3.4-2.1-6.1-2.1-6.1S136.1,110.5,136.1,113.9z"/>
							<path class="st1" d="M138.1,107.8l0.1,12.2c0,0-2-2.7-2.1-6.1C136.1,110.5,138.1,107.8,138.1,107.8z"/>
						</g>
						<g>
							<path class="st1" d="M136.3,100.1c0,3,1.9,5.5,1.9,5.5s1.8-2.5,1.8-5.5c0-3-1.9-5.5-1.9-5.5S136.3,97,136.3,100.1z"/>
							<path class="st1" d="M138.1,94.6l0.1,11c0,0-1.8-2.4-1.9-5.5C136.3,97,138.1,94.6,138.1,94.6z"/>
						</g>
						<g>
							<path class="st1" d="M136.3,85c0,3,1.9,5.5,1.9,5.5s1.8-2.5,1.8-5.5c0-3-1.9-5.5-1.9-5.5S136.3,81.9,136.3,85z"/>
							<path class="st1" d="M138.1,79.5l0.1,11c0,0-1.8-2.4-1.9-5.5C136.3,81.9,138.1,79.5,138.1,79.5z"/>
						</g>
						<g>
							<path class="st1" d="M144.5,106.6c-1.7,2.9-1.2,6.4-1.2,6.4s3.2-1.3,5-4.2c1.7-2.9,1.2-6.4,1.2-6.4S146.2,103.7,144.5,106.6z
								"/>
							<path class="st1" d="M149.4,102.4l-6.2,10.6c0,0-0.5-3.5,1.2-6.4C146.2,103.7,149.4,102.4,149.4,102.4z"/>
						</g>
					</g>
					<g>
						<g>
							<path class="st1" d="M120.5,143.7c0.7,3.3-0.8,6.4-0.8,6.4s-2.7-2.2-3.4-5.5c-0.7-3.3,0.8-6.4,0.8-6.4
								S119.8,140.4,120.5,143.7z"/>
							<path class="st1" d="M117.1,138.2l2.6,12c0,0,1.5-3.1,0.8-6.4C119.8,140.4,117.1,138.2,117.1,138.2z"/>
						</g>
						<g>
							<path class="st1" d="M112.3,138.7c1.4,3.1,0.6,6.5,0.6,6.5s-3.1-1.6-4.6-4.6c-1.4-3.1-0.6-6.5-0.6-6.5
								S110.8,135.6,112.3,138.7z"/>
							<path class="st1" d="M107.7,134.1l5.2,11.1c0,0,0.8-3.4-0.6-6.5C110.8,135.6,107.7,134.1,107.7,134.1z"/>
						</g>
						<g>
							<path class="st1" d="M101.7,130.4c2.6,2.1,3.4,5.5,3.4,5.5s-3.5,0-6.1-2.1c-2.6-2.1-3.4-5.5-3.4-5.5S99.1,128.3,101.7,130.4z
								"/>
							<path class="st1" d="M95.6,128.3l9.6,7.7c0,0-0.8-3.4-3.4-5.5C99.1,128.3,95.6,128.3,95.6,128.3z"/>
						</g>
						<g>
							<path class="st1" d="M116.4,120.4c2.1,2.7,2,6.2,2,6.2s-3.4-0.8-5.5-3.5c-2.1-2.7-2-6.2-2-6.2S114.3,117.8,116.4,120.4z"/>
							<path class="st1" d="M110.9,116.9l7.5,9.7c0,0,0-3.5-2-6.2C114.3,117.8,110.9,116.9,110.9,116.9z"/>
						</g>
						<g>
							<path class="st1" d="M127.5,115.7c1.1,3.2,0,6.5,0,6.5s-2.9-1.9-4.1-5.1c-1.1-3.2,0-6.5,0-6.5S126.4,112.5,127.5,115.7z"/>
							<path class="st1" d="M123.4,110.7l4.1,11.6c0,0,1.1-3.3,0-6.5C126.4,112.5,123.4,110.7,123.4,110.7z"/>
						</g>
						<g>
							<path class="st1" d="M107.7,116.4c1.7,2.9,1.1,6.4,1.1,6.4s-3.2-1.3-4.9-4.3c-1.7-2.9-1.1-6.4-1.1-6.4S106,113.4,107.7,116.4
								z"/>
							<path class="st1" d="M102.8,112.1l6,10.7c0,0,0.5-3.5-1.1-6.4C106,113.4,102.8,112.1,102.8,112.1z"/>
						</g>
						<g>
							<path class="st1" d="M121.2,102.9c1.7,2.9,1.1,6.4,1.1,6.4s-3.2-1.3-4.9-4.3c-1.7-2.9-1.1-6.4-1.1-6.4S119.5,100,121.2,102.9
								z"/>
							<path class="st1" d="M116.3,98.6l6,10.7c0,0,0.5-3.5-1.1-6.4C119.5,100,116.3,98.6,116.3,98.6z"/>
						</g>
						<g>
							<path class="st1" d="M110,106.6c1.7,2.9,1.1,6.4,1.1,6.4s-3.2-1.3-4.9-4.3c-1.7-2.9-1.1-6.4-1.1-6.4S108.3,103.7,110,106.6z"
								/>
							<path class="st1" d="M105.1,102.4l6,10.7c0,0,0.5-3.5-1.1-6.4C108.3,103.7,105.1,102.4,105.1,102.4z"/>
						</g>
						<g>
							<path class="st1" d="M104.1,94.7c1.7,2.9,1.1,6.4,1.1,6.4s-3.2-1.3-4.9-4.3c-1.7-2.9-1.1-6.4-1.1-6.4S102.4,91.8,104.1,94.7z
								"/>
							<path class="st1" d="M99.2,90.4l6,10.7c0,0,0.5-3.5-1.1-6.4C102.4,91.8,99.2,90.4,99.2,90.4z"/>
						</g>
						<g>
							<path class="st1" d="M95.9,118.3c3.2,1,5.2,3.9,5.2,3.9s-3.3,1.3-6.5,0.3c-3.2-1-5.2-3.9-5.2-3.9S92.7,117.3,95.9,118.3z"/>
							<path class="st1" d="M89.4,118.6l11.7,3.6c0,0-2-2.9-5.2-3.9C92.7,117.3,89.4,118.6,89.4,118.6z"/>
						</g>
						<g>
							<path class="st1" d="M92.9,131.6c3.1,1.3,4.8,4.3,4.8,4.3s-3.4,0.9-6.5-0.4c-3.1-1.3-4.8-4.3-4.8-4.3S89.7,130.3,92.9,131.6z
								"/>
							<path class="st1" d="M86.4,131.2l11.3,4.7c0,0-1.7-3-4.8-4.3S86.4,131.2,86.4,131.2z"/>
						</g>
						<g>
							<path class="st1" d="M94.8,141c3.1,1.3,4.8,4.3,4.8,4.3s-3.4,0.9-6.5-0.4c-3.1-1.3-4.8-4.3-4.8-4.3S91.7,139.7,94.8,141z"/>
							<path class="st1" d="M88.3,140.7l11.3,4.7c0,0-1.7-3-4.8-4.3S88.3,140.7,88.3,140.7z"/>
						</g>
						<g>
							<path class="st1" d="M93.3,148.3c3.1,1.3,4.8,4.3,4.8,4.3s-3.4,0.9-6.5-0.4c-3.1-1.3-4.8-4.3-4.8-4.3S90.2,147,93.3,148.3z"
								/>
							<path class="st1" d="M86.8,148l11.3,4.7c0,0-1.7-3-4.8-4.3C90.2,147,86.8,148,86.8,148z"/>
						</g>
						<g>
							<path class="st1" d="M98.5,111.7c2.1,2.6,2.2,6.1,2.2,6.1s-3.4-0.7-5.6-3.4c-2.1-2.6-2.2-6.1-2.2-6.1S96.4,109,98.5,111.7z"
								/>
							<path class="st1" d="M93,108.3l7.8,9.5c0,0-0.1-3.5-2.2-6.1C96.4,109,93,108.3,93,108.3z"/>
						</g>
						<g>
							<path class="st1" d="M115.4,90.2c1.6,3,0.9,6.4,0.9,6.4s-3.2-1.4-4.8-4.4c-1.6-3-0.9-6.4-0.9-6.4S113.8,87.2,115.4,90.2z"/>
							<path class="st1" d="M110.7,85.8l5.7,10.9c0,0,0.6-3.4-0.9-6.4C113.8,87.2,110.7,85.8,110.7,85.8z"/>
						</g>
						<g>
							<path class="st1" d="M115.5,80.3c1.6,3,0.9,6.4,0.9,6.4s-3.2-1.4-4.8-4.4c-1.6-3-0.9-6.4-0.9-6.4S113.9,77.3,115.5,80.3z"/>
							<path class="st1" d="M110.7,75.8l5.7,10.9c0,0,0.6-3.4-0.9-6.4C113.9,77.3,110.7,75.8,110.7,75.8z"/>
						</g>
						<g>
							<path class="st1" d="M125.3,78.1c1.6,3,0.9,6.4,0.9,6.4s-3.2-1.4-4.8-4.4c-1.6-3-0.9-6.4-0.9-6.4S123.8,75.1,125.3,78.1z"/>
							<path class="st1" d="M120.6,73.7l5.7,10.9c0,0,0.6-3.4-0.9-6.4C123.8,75.1,120.6,73.7,120.6,73.7z"/>
						</g>
						<g>
							<path class="st1" d="M100.4,103.6c1.9,2.8,1.7,6.3,1.7,6.3s-3.3-1-5.2-3.8s-1.7-6.3-1.7-6.3S98.5,100.8,100.4,103.6z"/>
							<path class="st1" d="M95.2,99.8l6.9,10.1c0,0,0.2-3.5-1.7-6.3S95.2,99.8,95.2,99.8z"/>
						</g>
						<g>
							<path class="st1" d="M113.6,98.9c1.3,3.1,0.4,6.5,0.4,6.5s-3.1-1.7-4.4-4.8c-1.3-3.1-0.4-6.5-0.4-6.5S112.3,95.8,113.6,98.9z
								"/>
							<path class="st1" d="M109.2,94.2l4.9,11.2c0,0,0.9-3.4-0.4-6.5C112.3,95.8,109.2,94.2,109.2,94.2z"/>
						</g>
						<g>
							<path class="st1" d="M132.4,95.8c1.3,3.1,0.4,6.5,0.4,6.5s-3.1-1.7-4.4-4.8c-1.3-3.1-0.4-6.5-0.4-6.5S131.1,92.7,132.4,95.8z
								"/>
							<path class="st1" d="M128,91.1l4.9,11.2c0,0,0.9-3.4-0.4-6.5C131.1,92.7,128,91.1,128,91.1z"/>
						</g>
						<g>
							<path class="st1" d="M124.4,95.8c1.3,3.1,0.4,6.5,0.4,6.5s-3.1-1.7-4.4-4.8c-1.3-3.1-0.4-6.5-0.4-6.5S123.1,92.7,124.4,95.8z
								"/>
							<path class="st1" d="M120,91l4.9,11.2c0,0,0.9-3.4-0.4-6.5C123.1,92.7,120,91,120,91z"/>
						</g>
						<g>
							<path class="st1" d="M119.6,112.8c1.7,2.9,1.1,6.4,1.1,6.4s-3.2-1.3-4.9-4.3c-1.7-2.9-1.1-6.4-1.1-6.4S118,109.9,119.6,112.8
								z"/>
							<path class="st1" d="M114.7,108.6l6,10.7c0,0,0.5-3.5-1.1-6.4C118,109.9,114.7,108.6,114.7,108.6z"/>
						</g>
						<g>
							<path class="st1" d="M135,135c1.4,3.1,0.6,6.5,0.6,6.5s-3.1-1.6-4.6-4.6c-1.4-3.1-0.6-6.5-0.6-6.5S133.5,132,135,135z"/>
							<path class="st1" d="M130.4,130.4l5.2,11.1c0,0,0.8-3.4-0.6-6.5C133.5,132,130.4,130.4,130.4,130.4z"/>
						</g>
						<g>
							<path class="st1" d="M135.1,122.5c1.2,3.2,0.1,6.5,0.1,6.5s-3-1.8-4.2-5c-1.2-3.2-0.1-6.5-0.1-6.5S133.9,119.3,135.1,122.5z"
								/>
							<path class="st1" d="M130.9,117.5l4.3,11.5c0,0,1.1-3.3-0.1-6.5C133.9,119.3,130.9,117.5,130.9,117.5z"/>
						</g>
						<g>
							<path class="st1" d="M126.7,124.6c1.4,3.1,0.6,6.5,0.6,6.5s-3.1-1.6-4.6-4.6c-1.4-3.1-0.6-6.5-0.6-6.5
								S125.2,121.6,126.7,124.6z"/>
							<path class="st1" d="M122.1,120l5.2,11.1c0,0,0.8-3.4-0.6-6.5C125.2,121.6,122.1,120,122.1,120z"/>
						</g>
						<g>
							<path class="st1" d="M134.2,147.9c1.2,3.2,0.1,6.5,0.1,6.5s-3-1.8-4.1-5c-1.2-3.2-0.1-6.5-0.1-6.5S133,144.7,134.2,147.9z"/>
							<path class="st1" d="M130.1,142.9l4.2,11.5c0,0,1.1-3.3-0.1-6.5C133,144.7,130.1,142.9,130.1,142.9z"/>
						</g>
						<g>
							<path class="st1" d="M103.9,139.7c2.9,1.8,4,5.1,4,5.1s-3.5,0.4-6.3-1.4c-2.9-1.8-4-5.1-4-5.1S101.1,137.9,103.9,139.7z"/>
							<path class="st1" d="M97.6,138.3l10.4,6.5c0,0-1.2-3.3-4-5.1C101.1,137.9,97.6,138.3,97.6,138.3z"/>
						</g>
						<g>
							<path class="st1" d="M120.6,132.2c1.9,2.8,1.6,6.3,1.6,6.3s-3.3-1.1-5.2-3.9s-1.6-6.3-1.6-6.3S118.8,129.4,120.6,132.2z"/>
							<path class="st1" d="M115.4,128.3l6.8,10.2c0,0,0.3-3.5-1.6-6.3C118.8,129.4,115.4,128.3,115.4,128.3z"/>
						</g>
						<g>
							<path class="st1" d="M128.7,138.9c0.8,3.3-0.7,6.5-0.7,6.5s-2.7-2.2-3.5-5.5c-0.8-3.3,0.7-6.5,0.7-6.5
								S127.9,135.6,128.7,138.9z"/>
							<path class="st1" d="M125.2,133.4l2.8,11.9c0,0,1.5-3.2,0.7-6.5C127.9,135.6,125.2,133.4,125.2,133.4z"/>
						</g>
						<g>
							<path class="st1" d="M113.6,152.3c3.3,0.8,5.4,3.6,5.4,3.6s-3.2,1.4-6.5,0.6c-3.3-0.8-5.4-3.6-5.4-3.6
								S110.4,151.5,113.6,152.3z"/>
							<path class="st1" d="M107.2,152.9l11.9,3c0,0-2.1-2.8-5.4-3.6C110.4,151.5,107.2,152.9,107.2,152.9z"/>
						</g>
						<g>
							<path class="st1" d="M105.4,147.1c3.4-0.1,6.2,1.9,6.2,1.9s-2.6,2.3-6,2.4c-3.4,0.1-6.2-1.9-6.2-1.9S102,147.2,105.4,147.1z"
								/>
							<path class="st1" d="M99.4,149.5l12.2-0.5c0,0-2.8-2-6.2-1.9C102,147.2,99.4,149.5,99.4,149.5z"/>
						</g>
						<g>
							<path class="st1" d="M116,164.8c3.4-0.2,6.2,1.9,6.2,1.9s-2.6,2.3-6,2.5c-3.4,0.2-6.2-1.9-6.2-1.9S112.6,164.9,116,164.8z"/>
							<path class="st1" d="M110,167.2l12.2-0.6c0,0-2.8-2-6.2-1.9C112.6,164.9,110,167.2,110,167.2z"/>
						</g>
						<g>
							<path class="st1" d="M102.2,162.2c3.4-0.2,6.2,1.9,6.2,1.9s-2.6,2.3-6,2.5c-3.4,0.2-6.2-1.9-6.2-1.9S98.8,162.3,102.2,162.2z
								"/>
							<path class="st1" d="M96.2,164.6l12.2-0.6c0,0-2.8-2-6.2-1.9C98.8,162.3,96.2,164.6,96.2,164.6z"/>
						</g>
						<g>
							<path class="st1" d="M83.8,150c3.2,1,5.2,3.9,5.2,3.9s-3.3,1.2-6.5,0.2c-3.2-1-5.2-3.9-5.2-3.9S80.5,149,83.8,150z"/>
							<path class="st1" d="M77.3,150.2l11.7,3.6c0,0-2-2.9-5.2-3.9C80.5,149,77.3,150.2,77.3,150.2z"/>
						</g>
						<g>
							<path class="st1" d="M82.5,134c3.2,1,5.2,3.9,5.2,3.9s-3.3,1.2-6.5,0.2c-3.2-1-5.2-3.9-5.2-3.9S79.3,133,82.5,134z"/>
							<path class="st1" d="M76,134.3l11.7,3.6c0,0-2-2.9-5.2-3.9C79.3,133,76,134.3,76,134.3z"/>
						</g>
						<g>
							<path class="st1" d="M91.5,95.2c2.3,2.5,2.6,5.9,2.6,5.9s-3.5-0.5-5.8-3c-2.3-2.5-2.6-5.9-2.6-5.9S89.2,92.7,91.5,95.2z"/>
							<path class="st1" d="M85.7,92.2l8.4,8.9c0,0-0.3-3.5-2.6-5.9C89.2,92.7,85.7,92.2,85.7,92.2z"/>
						</g>
						<g>
							<path class="st1" d="M79.6,117.3c3,1.5,4.5,4.7,4.5,4.7s-3.4,0.7-6.4-0.8c-3-1.5-4.5-4.7-4.5-4.7S76.6,115.8,79.6,117.3z"/>
							<path class="st1" d="M73.2,116.4l10.9,5.5c0,0-1.5-3.2-4.5-4.7C76.6,115.8,73.2,116.4,73.2,116.4z"/>
						</g>
						<g>
							<path class="st1" d="M106.3,86.6c1.9,2.8,1.6,6.3,1.6,6.3s-3.3-1.1-5.2-3.9c-1.9-2.8-1.6-6.3-1.6-6.3S104.4,83.7,106.3,86.6z
								"/>
							<path class="st1" d="M101.1,82.6l6.7,10.2c0,0,0.3-3.5-1.6-6.3C104.4,83.7,101.1,82.6,101.1,82.6z"/>
						</g>
						<g>
							<path class="st1" d="M124.5,86.9c1.4,3.1,0.5,6.5,0.5,6.5s-3.1-1.6-4.5-4.7c-1.4-3.1-0.5-6.5-0.5-6.5S123.2,83.8,124.5,86.9z
								"/>
							<path class="st1" d="M120.1,82.2l5,11.2c0,0,0.8-3.4-0.5-6.5C123.2,83.8,120.1,82.2,120.1,82.2z"/>
						</g>
						<g>
							<path class="st1" d="M133.8,85.9c1.4,3.1,0.5,6.5,0.5,6.5s-3.1-1.6-4.5-4.7c-1.4-3.1-0.5-6.5-0.5-6.5S132.4,82.9,133.8,85.9z
								"/>
							<path class="st1" d="M129.3,81.3l5,11.2c0,0,0.8-3.4-0.5-6.5C132.4,82.9,129.3,81.3,129.3,81.3z"/>
						</g>
						<g>
							<path class="st1" d="M95.6,89c1.4,3.1,0.5,6.5,0.5,6.5s-3.1-1.6-4.5-4.7s-0.5-6.5-0.5-6.5S94.2,85.9,95.6,89z"/>
							<path class="st1" d="M91.1,84.3l5,11.2c0,0,0.8-3.4-0.5-6.5C94.2,85.9,91.1,84.3,91.1,84.3z"/>
						</g>
						<g>
							<path class="st1" d="M85.4,113.8c2.8,2,3.7,5.3,3.7,5.3s-3.5,0.2-6.2-1.8c-2.8-2-3.7-5.3-3.7-5.3S82.6,111.9,85.4,113.8z"/>
							<path class="st1" d="M79.1,112l10,7.1c0,0-1-3.4-3.7-5.3C82.6,111.9,79.1,112,79.1,112z"/>
						</g>
						<g>
							<path class="st1" d="M89.4,105.6c1.9,2.8,1.6,6.3,1.6,6.3s-3.3-1.1-5.2-3.9c-1.9-2.8-1.6-6.3-1.6-6.3S87.6,102.8,89.4,105.6z
								"/>
							<path class="st1" d="M84.3,101.7l6.7,10.2c0,0,0.3-3.5-1.6-6.3C87.6,102.8,84.3,101.7,84.3,101.7z"/>
						</g>
						<g>
							<path class="st1" d="M81.4,141.8c3.2,1,5.2,3.9,5.2,3.9s-3.3,1.2-6.5,0.2c-3.2-1-5.2-3.9-5.2-3.9S78.2,140.8,81.4,141.8z"/>
							<path class="st1" d="M74.9,142.1l11.7,3.6c0,0-2-2.9-5.2-3.9C78.2,140.8,74.9,142.1,74.9,142.1z"/>
						</g>
						<g>
							<path class="st1" d="M105.1,155.1c3.2,1,5.2,3.8,5.2,3.8s-3.3,1.3-6.5,0.3c-3.2-1-5.2-3.8-5.2-3.8S101.9,154.1,105.1,155.1z"
								/>
							<path class="st1" d="M98.6,155.4l11.7,3.6c0,0-2-2.9-5.2-3.8C101.9,154.1,98.6,155.4,98.6,155.4z"/>
						</g>
						<g>
							<path class="st1" d="M139.9,113.9c0,3.4-2.1,6.1-2.1,6.1s-2-2.8-2-6.1c0-3.4,2.1-6.1,2.1-6.1S139.9,110.5,139.9,113.9z"/>
							<path class="st1" d="M137.9,107.8l-0.1,12.2c0,0,2-2.7,2.1-6.1C139.9,110.5,137.9,107.8,137.9,107.8z"/>
						</g>
						<g>
							<path class="st1" d="M139.7,100.1c0,3-1.9,5.5-1.9,5.5s-1.8-2.5-1.8-5.5c0-3,1.9-5.5,1.9-5.5S139.7,97,139.7,100.1z"/>
							<path class="st1" d="M137.9,94.6l-0.1,11c0,0,1.8-2.4,1.9-5.5C139.7,97,137.9,94.6,137.9,94.6z"/>
						</g>
						<g>
							<path class="st1" d="M139.7,85c0,3-1.9,5.5-1.9,5.5s-1.8-2.5-1.8-5.5c0-3,1.9-5.5,1.9-5.5S139.7,81.9,139.7,85z"/>
							<path class="st1" d="M137.9,79.5l-0.1,11c0,0,1.8-2.4,1.9-5.5C139.7,81.9,137.9,79.5,137.9,79.5z"/>
						</g>
						<g>
							<path class="st1" d="M131.5,106.6c1.7,2.9,1.2,6.4,1.2,6.4s-3.2-1.3-5-4.2c-1.7-2.9-1.2-6.4-1.2-6.4S129.8,103.7,131.5,106.6
								z"/>
							<path class="st1" d="M126.6,102.4l6.2,10.6c0,0,0.5-3.5-1.2-6.4S126.6,102.4,126.6,102.4z"/>
						</g>
					</g>
				</g>
			</g>
		</g>
		<g>
			<g>
				<circle class="st1" cx="121.5" cy="82.1" r="13"/>
				<path class="st0" d="M121.5,93.2c-6.1,0-11.1-5-11.1-11.1c0-6.1,5-11.1,11.1-11.1c6.1,0,11.1,5,11.1,11.1
					C132.6,88.2,127.6,93.2,121.5,93.2z"/>
			</g>
			<g>
				<circle class="st1" cx="154.5" cy="82.2" r="13"/>
				<path class="st0" d="M154.5,93.3c-6.1,0-11.1-5-11.1-11.1c0-6.1,5-11.1,11.1-11.1c6.1,0,11.1,5,11.1,11.1
					C165.6,88.3,160.6,93.3,154.5,93.3z"/>
			</g>
		</g>
		<circle class="st1" cx="99.4" cy="146.5" r="13"/>
		<path class="st0" d="M99.4,157.6c-6.1,0-11.1-5-11.1-11.1c0-6.1,5-11.1,11.1-11.1c6.1,0,11.1,5,11.1,11.1
			C110.5,152.6,105.5,157.6,99.4,157.6z"/>
		<circle class="st1" cx="176.6" cy="146.5" r="13"/>
		<path class="st0" d="M176.6,157.6c-6.1,0-11.1-5-11.1-11.1c0-6.1,5-11.1,11.1-11.1c6.1,0,11.1,5,11.1,11.1
			C187.7,152.6,182.7,157.6,176.6,157.6z"/>
		<circle class="st1" cx="121.6" cy="122.8" r="13"/>
		<path class="st0" d="M121.6,133.9c-6.1,0-11.1-5-11.1-11.1c0-6.1,5-11.1,11.1-11.1c6.1,0,11.1,5,11.1,11.1
			C132.7,128.9,127.7,133.9,121.6,133.9z"/>
		<circle class="st1" cx="154.4" cy="122.8" r="13"/>
		<path class="st0" d="M154.4,133.9c-6.1,0-11.1-5-11.1-11.1c0-6.1,5-11.1,11.1-11.1c6.1,0,11.1,5,11.1,11.1
			C165.5,128.9,160.6,133.9,154.4,133.9z"/>
		<circle class="st1" cx="92.2" cy="103.2" r="13"/>
		<path class="st0" d="M92.2,114.3c-6.1,0-11.1-5-11.1-11.1c0-6.1,5-11.1,11.1-11.1c6.1,0,11.1,5,11.1,11.1
			C103.3,109.4,98.3,114.3,92.2,114.3z"/>
		<circle class="st1" cx="183.8" cy="103.4" r="13"/>
		<path class="st0" d="M183.8,114.5c-6.1,0-11.1-5-11.1-11.1c0-6.1,5-11.1,11.1-11.1c6.1,0,11.1,5,11.1,11.1
			C194.9,109.5,190,114.5,183.8,114.5z"/>
	</g>
</g>
</svg>
