<svg xmlns="http://www.w3.org/2000/svg" viewBox="0 0 260 260"><defs><style>.cls-1{fill:#fff;}.cls-2{fill:#6b77b6;}</style></defs><title>Risorsa 4</title><g id="Livello_2" data-name="Livello 2"><g id="Livello_1-2" data-name="Livello 1"><circle class="cls-1" cx="130" cy="130" r="130"/><path class="cls-2" d="M189.69,82.18v17a2.26,2.26,0,0,1-.13.76c-1.89,5.32-6,8.39-10.68,10.77-.76.38-1.51.76-2.29,1.1-10.22,4.45-21,6.41-32,7.41a158.29,158.29,0,0,1-35-.64c-9.58-1.26-19-3.3-27.82-7.61-4.84-2.36-9.07-5.43-11.09-10.81A3.48,3.48,0,0,1,70.56,99V82a2.39,2.39,0,0,1,.19-.94c2.57-6,7.56-9.1,13.11-11.54,9.29-4.08,19.1-5.77,29-7.11,4.58-.61,8.46-.82,13.82-1.31l7.44.08c2.64.32,4.09.17,6.05.29A113.65,113.65,0,0,1,172,67.82C179,70.36,186,73.26,189.45,81A3,3,0,0,1,189.69,82.18Zm-61.06-16a121.9,121.9,0,0,0-26.71,2.5C94.11,70.27,86.4,72.33,79.65,77,74,80.86,74,84.3,79.58,88.26a45.48,45.48,0,0,0,13.83,6.22C108.33,98.87,123.61,99.76,139,99a110.4,110.4,0,0,0,31.65-5.77,36.31,36.31,0,0,0,11.21-5.87c4-3.28,4-6.12.07-9.41a29.71,29.71,0,0,0-8-4.66C159.88,67.65,145.25,66.13,128.64,66.17Z"/><path class="cls-2" d="M133.5,199.05h-7.31a26.65,26.65,0,0,0-4.17-.26A112.14,112.14,0,0,1,90.16,193c-7.91-2.65-15.63-5.51-19.6-12.45V160.66c2.15,1.67,3.49,4.19,5.76,5.78a49.67,49.67,0,0,0,15.56,7.13c24.43,6.65,49,6.68,73.52.84,6.84-1.63,13.42-4.13,19.21-8.5,2-1.5,3-3.89,5.09-5.25v19.93a30.63,30.63,0,0,1-12.52,9.73c-9.5,4.32-19.59,6.1-29.8,7.45C142.76,198.39,139.67,198.73,133.5,199.05Z"/><path class="cls-2" d="M70.56,127c0-6,0-12.67,0-18.68a7.63,7.63,0,0,1,1.19,1.36c1.55,2.15,8.73,6.82,14.55,9.07,9.35,3.61,19.08,5.29,29,6.18,17.36,1.56,34.55.74,51.46-3.79,6.61-1.77,13-4.21,18.51-8.68a52.75,52.75,0,0,0,4.43-4.08v18.78c-2.95,4.68-6.53,7.4-11.56,9.78a64.2,64.2,0,0,1-6.51,2.69c-13.74,4.75-28,6.1-42.34,6-13.82-.05-27.49-1.41-40.66-6.06C81.24,137,74,132.67,70.56,127Z"/><path class="cls-2" d="M123.21,79.26c.29.21.6.11.89.12h17.46c.86,0,.77,0,.5.82-.41,1.31-1.17,1.61-2.47,1.59-5.44-.09-10.88,0-16.32,0-.51,0-1-.12-1,.74.07,1.26,0,1.27.94,1.27h16.17c.88,0,.79,0,.52.81-.41,1.3-1.16,1.63-2.46,1.6-4.45-.1-8.91,0-13.36,0h-.95a4.68,4.68,0,0,0,1.63,2A11.22,11.22,0,0,0,129.66,90a32.6,32.6,0,0,0,14.51-.7l.5-.17c1.12-.4,1.12-.4,1.12.87,0,.84-.05,1.68,0,2.51s-.21.89-.81,1a60.27,60.27,0,0,1-12.32.83,40.72,40.72,0,0,1-13.21-2.53,17.23,17.23,0,0,1-5.26-3,6.51,6.51,0,0,1-1.71-2.17.75.75,0,0,0-.83-.48c-1.32,0-2.63,0-3.95,0-.6,0-.55-.14-.39-.66.44-1.39,1.23-2.06,2.67-1.73a2.1,2.1,0,0,0,.45,0c1.16,0,1.12,0,1.2-1.2,0-.66-.15-.85-.78-.82-1.09.05-2.18,0-3.26,0-.46,0-.54-.15-.32-.53l0-.07c.78-1.78.79-1.87,2.7-1.75a3.63,3.63,0,0,0,3.55-1.61c1.85-2.47,4.6-3.68,7.43-4.6a48.05,48.05,0,0,1,15.67-2,52.84,52.84,0,0,1,8.39.69c.3.05.59.13,1,.21-.65,1.32-1.27,2.6-1.89,3.87-.13.26-.25.27-.53.19a28,28,0,0,0-16-.05,8.27,8.27,0,0,0-3.55,2A2.75,2.75,0,0,0,123.21,79.26Z"/><path class="cls-2" d="M70.56,153c0-6,0-12.67,0-18.68a7.63,7.63,0,0,1,1.19,1.36c1.55,2.15,8.73,6.82,14.55,9.07,9.35,3.61,19.08,5.29,29,6.18,17.36,1.56,34.55.74,51.46-3.79,6.61-1.77,13-4.21,18.51-8.68a52.75,52.75,0,0,0,4.43-4.08v18.78c-2.95,4.68-6.53,7.4-11.56,9.78a64.2,64.2,0,0,1-6.51,2.69c-13.74,4.75-28,6.1-42.34,6-13.82-.05-27.49-1.41-40.66-6.06C81.24,163,74,158.73,70.56,153Z"/></g></g></svg>
